<svg width="26" height="26" viewBox="0 0 26 26" fill="none" xmlns="http://www.w3.org/2000/svg">
<path fill-rule="evenodd" clip-rule="evenodd" d="M13 24.9167C6.41861 24.9167 1.08334 19.5814 1.08334 13C1.08334 6.41862 6.41861 1.08334 13 1.08334C19.5814 1.08334 24.9167 6.41862 24.9167 13C24.9167 19.5814 19.5814 24.9167 13 24.9167ZM13 22.75C18.3848 22.75 22.75 18.3848 22.75 13C22.75 7.61523 18.3848 3.25001 13 3.25001C7.61523 3.25001 3.25 7.61523 3.25 13C3.25 18.3848 7.61523 22.75 13 22.75ZM13 17.656C14.4295 17.656 15.7401 18.3519 16.5475 19.5L18.3198 18.2536C17.1108 16.5346 15.1423 15.4893 13 15.4893C10.8576 15.4893 8.88924 16.5346 7.68022 18.2536L9.45245 19.5C10.2599 18.3519 11.5705 17.656 13 17.656ZM15.1667 13V10.8333H17.3333V13H15.1667ZM8.66667 10.8333V13H10.8333V10.8333H8.66667Z" fill="#EC1111"/>
</svg>
