<svg width="26" height="26" viewBox="0 0 26 26" fill="none" xmlns="http://www.w3.org/2000/svg">
<path fill-rule="evenodd" clip-rule="evenodd" d="M13 24.9167C6.4186 24.9167 1.08333 19.5814 1.08333 13C1.08333 6.41862 6.4186 1.08334 13 1.08334C19.5814 1.08334 24.9167 6.41862 24.9167 13C24.9167 19.5814 19.5814 24.9167 13 24.9167ZM13 22.75C18.3848 22.75 22.75 18.3848 22.75 13C22.75 7.61523 18.3848 3.25001 13 3.25001C7.61522 3.25001 3.24999 7.61523 3.24999 13C3.24999 18.3848 7.61522 22.75 13 22.75ZM18.3198 16.7358L16.5475 15.4893C15.7401 16.6374 14.4294 17.3333 13 17.3333C11.5705 17.3333 10.2599 16.6374 9.45245 15.4893L7.68021 16.7358C8.88923 18.4548 10.8576 19.5 13 19.5C15.1423 19.5 17.1107 18.4548 18.3198 16.7358ZM15.1667 11.9167V9.75001H17.3333V11.9167H15.1667ZM8.66666 9.75001V11.9167H10.8333V9.75001H8.66666Z" fill="#05F000"/>
</svg>
