<svg width="105" height="105" viewBox="0 0 105 105" fill="none" xmlns="http://www.w3.org/2000/svg">
<path fill-rule="evenodd" clip-rule="evenodd" d="M52.5 105C23.5051 105 0 81.495 0 52.5C0 23.5051 23.5051 0 52.5 0C81.495 0 105 23.5051 105 52.5C105 81.495 81.495 105 52.5 105ZM52.5004 95.4544C76.2235 95.4544 95.4549 76.223 95.4549 52.4998C95.4549 28.7767 76.2235 9.54528 52.5004 9.54528C28.7772 9.54528 9.54581 28.7767 9.54581 52.4998C9.54581 76.223 28.7772 95.4544 52.5004 95.4544ZM52.5001 73.0125C58.7978 73.0125 64.5718 76.0785 68.1292 81.1365L75.9369 75.6451C70.6105 68.0719 61.9385 63.467 52.5001 63.467C43.0618 63.467 34.3898 68.0719 29.0634 75.6451L36.8711 81.1365C40.4285 76.0785 46.2025 73.0125 52.5001 73.0125ZM62.0451 52.5V42.9545H71.5906V52.5H62.0451ZM33.4087 42.9545V52.5H42.9542V42.9545H33.4087Z" fill="#F25D9C"/>
</svg>
