<svg width="105" height="105" viewBox="0 0 105 105" fill="none" xmlns="http://www.w3.org/2000/svg">
<path fill-rule="evenodd" clip-rule="evenodd" d="M52.5 105C23.5051 105 0 81.495 0 52.5C0 23.5051 23.5051 0 52.5 0C81.495 0 105 23.5051 105 52.5C105 81.495 81.495 105 52.5 105ZM52.5004 95.4543C76.2235 95.4543 95.4549 76.2229 95.4549 52.4997C95.4549 28.7766 76.2235 9.5452 52.5004 9.5452C28.7772 9.5452 9.54581 28.7766 9.54581 52.4997C9.54581 76.2229 28.7772 95.4543 52.5004 95.4543ZM75.9371 68.9583L68.1293 63.467C64.572 68.525 58.7979 71.591 52.5003 71.591C46.2027 71.591 40.4287 68.525 36.8713 63.467L29.0635 68.9583C34.39 76.5316 43.062 81.1364 52.5003 81.1364C61.9386 81.1364 70.6106 76.5316 75.9371 68.9583ZM62.0453 47.7271V38.1817H71.5908V47.7271H62.0453ZM33.4089 38.1817V47.7271H42.9543V38.1817H33.4089Z" fill="#F25D9C"/>
</svg>
