<svg width="26" height="26" viewBox="0 0 26 26" fill="none" xmlns="http://www.w3.org/2000/svg">
<path fill-rule="evenodd" clip-rule="evenodd" d="M13 25.2715L13.7125 24.6493C19.7044 19.4173 22.75 14.849 22.75 10.8333C22.75 5.14653 18.3115 1.08331 13 1.08331C7.68847 1.08331 3.25 5.14653 3.25 10.8333C3.25 14.849 6.29558 19.4173 12.2875 24.6493L13 25.2715ZM13 22.3853C7.91548 17.803 5.41665 13.92 5.41665 10.8333C5.41665 6.38797 8.84444 3.24999 13 3.24999C17.1555 3.24999 20.5833 6.38797 20.5833 10.8333C20.5833 13.92 18.0845 17.803 13 22.3853ZM13 5.41664C15.9916 5.41664 18.4167 7.84176 18.4167 10.8333C18.4167 13.8248 15.9916 16.25 13 16.25C10.0085 16.25 7.58335 13.8248 7.58335 10.8333C7.58335 7.84176 10.0085 5.41664 13 5.41664ZM9.75 10.8333C9.75 9.03839 11.2051 7.58331 13 7.58331C14.7949 7.58331 16.25 9.03839 16.25 10.8333C16.25 12.6282 14.7949 14.0833 13 14.0833C11.2051 14.0833 9.75 12.6282 9.75 10.8333Z" fill="#F25D9C"/>
</svg>
