<svg width="18" height="18" viewBox="0 0 18 18" fill="none" xmlns="http://www.w3.org/2000/svg">
<path fill-rule="evenodd" clip-rule="evenodd" d="M11.3164 13.1736C10.1529 13.9755 8.74254 14.4451 7.22253 14.4451C3.23364 14.4451 0 11.2114 0 7.22253C0 3.23364 3.23364 0 7.22253 0C11.2114 0 14.4451 3.23364 14.4451 7.22253C14.4451 8.74254 13.9755 10.1529 13.1736 11.3164L18 16.1429L16.1429 18L11.3164 13.1736ZM7.22255 11.8187C9.76093 11.8187 11.8187 9.76091 11.8187 7.22252C11.8187 4.68413 9.76093 2.62636 7.22255 2.62636C4.68416 2.62636 2.62639 4.68413 2.62639 7.22252C2.62639 9.76091 4.68416 11.8187 7.22255 11.8187Z" fill="#F25D9C"/>
</svg>
